<svg width="1200" height="900" viewBox="0 0 1200 900" xmlns="http://www.w3.org/2000/svg">
  <rect width="1200" height="900" fill="#B9D7C1"/>
  <circle cx="1010" cy="150" r="220" fill="#CBE3D1"/>
  <circle cx="120" cy="760" r="260" fill="#A8CDB3"/>
  <ellipse cx="605" cy="775" rx="265" ry="45" fill="#8AAD94" opacity=".5"/>
  <path d="M525 690c-40-110-46-218-17-323 22-81 66-148 131-202 23-19 45-15 51 8 6 21-4 46-29 75-45 52-72 111-81 178-11 84 5 172 49 264H525Z" fill="#244D3F"/>
  <path d="M566 483c-96-12-169-59-218-141 84-25 161-9 230 48l-12 93Z" fill="#2F6A53"/>
  <path d="M586 425c17-111 76-191 178-239 18 101-12 186-90 255l-88-16Z" fill="#3C7A5F"/>
  <path d="M565 582c-98-5-175-46-231-122 80-33 158-25 233 25l-2 97Z" fill="#3D795A"/>
  <path d="M603 553c29-103 96-172 201-206 5 98-35 177-120 237l-81-31Z" fill="#2D674E"/>
  <path d="M628 677c33-85 94-141 184-167-2 84-41 151-119 201l-65-34Z" fill="#3F8060"/>
  <path d="M480 685h250l-31 142H511l-31-142Z" fill="#DB805E"/>
  <path d="M469 671h272v42H469z" rx="12" fill="#F19A76"/>
  <path d="M505 739h199" stroke="#B75E43" stroke-width="10" opacity=".45"/>
  <circle cx="437" cy="297" r="14" fill="#F2C85B"/>
  <circle cx="775" cy="292" r="10" fill="#F2C85B"/>
  <circle cx="846" cy="447" r="12" fill="#F2C85B"/>
</svg>
